# xmcd
#
# Track frame offsets:
#	150
#	16062
#	29983
#	44054
#	57504
#	70976
#	86179
#	98811
#	112510
#	124755
#	139570
#	152476
#	165248
#	179333
#	192249
#	204560
#	217392
#	229525
#	243966
#	255290
#
# Disc length: 3581 seconds
#
# Revision: 1
# Processed by: cddbd v1.5.2PL0 Copyright (c) Steve Scherf et al.
# Submitted via: audiograbber 1.83.01
#
DISCID=130dfb14
DTITLE=Gob Iron - The Blues Harmonica Anthology CD2
DYEAR=2007
DGENRE=Blues Harmonica
TTITLE0=Jazz Gillium - I Want You By My Side
TTITLE1=State Street Boys - Crazy About You
TTITLE2=Jaybird Coleman - Man Trouble Blues
TTITLE3=Ashley and Foster - Bay Rum Blues
TTITLE4=Chuck Darling - Blowin' the Blues
TTITLE5=Deford Bailey - Davidson County Blues
TTITLE6=John Lee "Sonny Boy" Williamson I - Shake the Boogie
TTITLE7=John Lee "Sonny Boy" Williamson I - Good Morning Little Schoolgirl
TTITLE8=Muddy Waters and Little Walter - Long Distance Call
TTITLE9=Muddy Waters and Little Walter - Still a Fool
TTITLE10=Jimmy Rodgers and Little Walter - That's All Right
TTITLE11=Little Walter - Juke
TTITLE12=Little Walter - Blues With a Feeling
TTITLE13=Little Walter - Off the Wall
TTITLE14=Little Walter - My Babe
TTITLE15=Doctor Ross - Come Back Baby
TTITLE16=Muddy Waters and Walter Horton - My Life Is Ruined
TTITLE17=Muddy Waters and James Cotton - Rock Me
TTITLE18=Muddy Waters and Junior Wells - Gone to Main Street
TTITLE19=Muddy Waters and Junior Wells - Mannish Boy
EXTD=
EXTT0=
EXTT1=
EXTT2=
EXTT3=
EXTT4=
EXTT5=
EXTT6=
EXTT7=
EXTT8=
EXTT9=
EXTT10=
EXTT11=
EXTT12=
EXTT13=
EXTT14=
EXTT15=
EXTT16=
EXTT17=
EXTT18=
EXTT19=
PLAYORDER=
